<svg id="Layer_1" data-name="Layer 1" xmlns="http://www.w3.org/2000/svg" viewBox="0 0 100 100"><defs><style>.cls-1{fill:#086aad;}.cls-2{fill:#131b28;}</style></defs><title>1</title><path class="cls-1" d="M21.92,16.23c-5.72,8.37-5,19.26-.65,28.14l.32.63.22.4.13.23c.08.14.15.28.22.41l.42.73.24.4.48.77.22.32c.22.35.46.69.7,1l0,0a1.57,1.57,0,0,1,.11.16c.21.29.43.58.65.87l.24.31.59.74.23.27q.4.49.82,1l0,0,0,0q.41.46.84.9l.27.27.67.67.27.26.91.85.17.15.83.71.34.28.69.54.37.29,1.06.77.08.06.75.51.33.22,1.18.74.33.19.89.51.49.26.63.32.15.07.26.13,1,.47.21.11,1.17.5.29.11,1.11.42.14,0,1.23.41.3.09a12.94,12.94,0,0,0,1.27.37C72.81,69.08,80.85,47,80.85,47,74.1,56,62.13,58.33,50.78,55.7c-.43-.11-.85-.23-1.27-.36l-.32-.11L48,54.83l-.17-.06-1.07-.41-.3-.12-1.16-.49-.23-.1-1-.47L43.78,53,43,52.65l-.51-.27-.91-.52-.31-.17-1.18-.74-.32-.22L39,50.16,38.69,50l-.8-.58-.35-.27-.72-.57-.32-.26-.89-.76-.11-.08c-.32-.28-.63-.58-.94-.87l-.26-.26-.68-.67-.26-.27q-.42-.44-.83-.89l0,0q-.43-.48-.84-1l-.22-.27-.61-.76-.22-.28-.7-.95c-6.3-8.75-8.55-20.82-3.53-30.73m13.3-1.29c-4.13,6.06-3.91,14.17-.69,20.58a26.92,26.92,0,0,0,1.83,3.11,14.67,14.67,0,0,0,2.13,2.71c.3.32.61.65.93,1l.24.25q.46.46.95.9l0,0q.55.49,1.12.94l.25.2q.57.45,1.16.86l0,0,.53.36.25.17.86.54.12.07.76.43.27.14.54.28.08,0c.36.18.73.36,1.11.52l.24.1.91.38.39.15.83.3.38.12a8.94,8.94,0,0,0,1.2.36c21.35,3.6,26.28-13.14,26.28-13.14-4.44,6.52-13,9.63-22.23,7.2q-.61-.16-1.21-.36l-.36-.11-.85-.3-.38-.15c-.31-.11-.61-.24-.91-.37l-.25-.11q-.57-.25-1.11-.53l-.56-.29-.32-.17L53.53,35l-.17-.11-.86-.53-.26-.18-.55-.37q-.59-.42-1.15-.86l-.26-.21a26.22,26.22,0,0,1-8.72-12.66A19.92,19.92,0,0,1,43.07,4.32M54.6,3.91a12.84,12.84,0,0,0-1,12.23,17,17,0,0,0,9.7,9.24l.54.19.23.08a6.7,6.7,0,0,0,.76.22c11.79,2.32,15-6.16,15.84-7.41-2.8,4.11-7.51,5.09-13.28,3.67-.45-.11-1-.28-1.41-.44a16.91,16.91,0,0,1-1.66-.7,17.11,17.11,0,0,1-2.91-1.81c-5.18-4-8.39-11.61-5-17.82"/><path class="cls-2" d="M28.56,81.48l-.8,2.83.8-2.83Zm4.11,6.15h0Zm-.22,4.23-5.27,0Zm1.1-4.22h0Zm-.63,3.86.92-3.5ZM52.34,75.36l-1.71,8Zm-4.4,0-1.3,6Z"/><path class="cls-2" d="M52,75H48.37a.48.48,0,0,0-.45.36l-2.6,12a.48.48,0,0,1-.45.36H42.29c-2.56,0-2.27-1.77-1.73-4.2l0-.07.31-1.66.13-.68,1.18-5.77a.29.29,0,0,0-.3-.36H38.15a.48.48,0,0,0-.45.36l-1.69,8c-.93,4.25-.68,8.3,4.37,8.42h8.08a.48.48,0,0,0,.45-.36l3.42-16.09A.29.29,0,0,0,52,75Zm14.6,12.79a.29.29,0,0,1,.3.36l-.36,1.74m-.36,1.74.36-1.74Zm-.45.37L59,92Z"/><path class="cls-2" d="M56.84,85.55c0-.19.21-.52.42-.52H56.8C56.59,87.1,56.84,85.55,56.84,85.55ZM59.36,92h0Zm7.27-4.23a.29.29,0,0,1,.3.36l-.41,2M61.09,92h0Zm-.9,0h0Zm-.27,0h0Zm-.27,0h0Zm.5,0h0Z"/><path class="cls-2" d="M61.08,92h0Zm4.69,0-4.68,0Zm.43-.38.3-1.45-.3,1.46Zm-6.38.4h0Zm-.54,0h0Zm.28,0h0ZM6,85.59l.57-2.52L5.95,86l-.08.36L6,85.59ZM12.83,75h-4a.49.49,0,0,0-.45.36L7.6,78.67a.28.28,0,0,0,.19.35h4.15a.48.48,0,0,0,.45-.36l.74-3.36a.29.29,0,0,0-.29-.36ZM12,80.55,10.77,86ZM.29,98.62l3.31,0-3.32,0Z"/><path class="cls-2" d="M7.16,80.55l-.57,2.52Zm4.51-.36H7.62a.49.49,0,0,0-.45.36L6,85.59l-.16.72L4.79,91.46q-.08.36-.19.71s-.76,2.25-2,2.23l-1.26,0a.49.49,0,0,0-.45.35L0,98.26a.28.28,0,0,0,.19.35h.1l3.32,0c3.18,0,4.85-1.76,5.93-6.83L12,80.56a.29.29,0,0,0-.29-.36ZM69.21,91.81a.29.29,0,0,1-.29-.36l3-14.27m1.48,14.27,1.23-6.09Z"/><path class="cls-2" d="M69,91.63a1.56,1.56,0,0,1,0-.54l1.45-6.78-1.52,7.14a.29.29,0,0,0,.29.36h.37C69.38,91.81,69,91.73,69,91.63Zm4.24.1a2,2,0,0,1-.57.08H73a.48.48,0,0,0,.44-.36l.07-.36a1.33,1.33,0,0,1-.32.64Zm.86-3.33.54-2.69Zm12-10.27.17.69a.28.28,0,0,1-.28.36"/><path class="cls-2" d="M73.52,91.09l.54-2.68Zm12.4-13.68.17.71Zm-11.31,8.3.15-.72.58-2.72-.66,3.08-.07.36ZM72,76.95l-.13.6-1.45,6.78L72,77.18l0-.23Z"/><path class="cls-2" d="M86.26,78.83l-.17-.69-.25-1.08c-.33-1.28-1.29-2-3.39-2H72.79a.48.48,0,0,0-.45.36l-.15.71L72,77.17,69,91.08a1.55,1.55,0,0,0,0,.54c0,.11.41.18.62.18h3.05a1.94,1.94,0,0,0,.57-.08c.11,0,.27-.43.32-.64l1.16-5.73,1.24-5.81a.48.48,0,0,1,.45-.36H86a.28.28,0,0,0,.28-.36Zm12.36-6.27H94.81a.79.79,0,0,0-.58.31l-6.8,10c-.11.17-.25.14-.29-.05l-.5-2.19a.49.49,0,0,0-.45-.36H81.82a.26.26,0,0,0-.27.36l1.95,6.86a1.64,1.64,0,0,1,0,.71l-.87,3.32a.27.27,0,0,0,.17.34h4.44a.5.5,0,0,0,.46-.36l.87-3.32a2.21,2.21,0,0,1,.31-.65l11-14.65c.12-.16.06-.29-.15-.29H98.62ZM63.9,81.15a.45.45,0,0,1-.43.38H57.93a.24.24,0,0,1-.26-.29v0l0-.09a3.48,3.48,0,0,1,3.63-2.33c2.28,0,2.73,1.11,2.57,2.37Zm-1.63-6.39c-7.11,0-8.8,4.32-9.74,8.67S51.67,92,59,92h2.07l4.68,0a.48.48,0,0,0,.44-.36l.71-3.48a.29.29,0,0,0-.3-.36H60c-2.63,0-3.41-.7-3.12-2.75H67.47a.42.42,0,0,0,.39-.27.45.45,0,0,0,0-.09c1.57-5.92,1.12-9.91-5.61-9.91ZM28.66,81.13l-.1.35-.8,2.83L27,87.14a.52.52,0,0,1-.47.36H22.27c-3.21,0-4-2.51-3.21-6.21s2.31-6.14,5.47-6.37c4.31-.32,5.17,2.71,4.13,6.21Zm2.9,6.15A47.57,47.57,0,0,0,34,79.64c.62-3.74-1.26-9.17-8.49-9.17S15.2,75.66,14,81.3s.37,10.65,7.52,10.61l10.92,0a.51.51,0,0,0,.46-.36l.92-3.5a.27.27,0,0,0-.17-.34H31.79a.23.23,0,0,1-.25-.26.4.4,0,0,1,0-.08Z"/><path class="cls-2" d="M67.18,84a.24.24,0,1,1-.24-.24A.24.24,0,0,1,67.18,84Z"/></svg>