<svg id="Layer_1" data-name="Layer 1" xmlns="http://www.w3.org/2000/svg" viewBox="0 0 100 100"><defs><style>.cls-1{fill:#f6df19;}.cls-2{fill:#fff;}</style></defs><title>1</title><rect class="cls-1" width="100" height="100"/><path class="cls-2" d="M26.29,83.57l7.66-4.63c1.48,2.62,2.81,4.82,6,4.82s5-1.21,5-5.9v-32h9.39V78c0,9.73-5.7,14.16-14,14.16-7.52,0-11.87-3.91-14.1-8.59"/><path class="cls-2" d="M59.53,82.56l7.66-4.43c2,3.28,4.63,5.7,9.26,5.7,3.89,0,6.37-2,6.37-4.63,0-3.22-2.56-4.36-6.86-6.25l-2.34-1C66.84,69,62.34,65.43,62.34,57.77c0-7.05,5.37-12.42,13.77-12.42,6,0,10.27,2.09,13.36,7.52l-7.32,4.71c-1.6-2.89-3.36-4-6-4s-4.49,1.74-4.49,4c0,2.81,1.74,4,5.78,5.7l2.34,1c8,3.42,12.48,6.91,12.48,14.77,0,8.46-6.64,13.09-15.57,13.09-8.75,0-14.37-4.16-17.13-9.59"/></svg>