<svg id="Layer_1" data-name="Layer 1" xmlns="http://www.w3.org/2000/svg" viewBox="0 0 100 100"><defs><style>.cls-1{fill:#ce6899;}</style></defs><title>1</title><path class="cls-1" d="M86.09,55.6A20.59,20.59,0,0,0,77,57.7,19.4,19.4,0,0,1,75,53a12.37,12.37,0,0,1-.18-3.94A33.94,33.94,0,0,1,76,44.82c0-.18-.21-1-2.23-1.05s-3.75.39-3.94.92a22.86,22.86,0,0,0-.84,3c-.35,1.84-4,8.34-6.11,11.75A12,12,0,0,1,61.51,56,12.37,12.37,0,0,1,61.33,52a33.94,33.94,0,0,1,1.19-4.26c0-.18-.21-1-2.23-1.05s-3.75.39-3.94.92-.43,1.78-.84,3-5.29,12.09-6.58,14.9c-.66,1.44-1.23,2.6-1.62,3.38a.54.54,0,0,1-.08.14c-.35.68-.55,1-.55,1v0c-.27.49-.57,1-.7,1a6,6,0,0,1,0-3.1c.72-3.79,2.46-9.67,2.44-9.86s.33-1.13-1.13-1.66a1.83,1.83,0,0,0-2.07.35c-.14,0-.21.31-.21.31s1.58-6.62-3-6.62c-2.89,0-6.87,3.16-8.85,6-1.25.68-3.89,2.11-6.72,3.67-1.07.61-2.19,1.21-3.24,1.78L23,61.67c-5.58-6-15.91-10.19-15.48-18.2.16-2.93,1.17-10.58,19.86-19.9C42.74,16,55,18.09,57.09,22.75c3,6.64-6.56,19-22.44,20.78-6.05.68-9.24-1.66-10-2.54s-1-1-1.27-.78c-.51.27-.18,1.09,0,1.56.47,1.25,2.42,3.44,5.74,4.51,2.93,1,10,1.48,18.63-1.84,9.63-3.73,17.14-14.08,14.94-22.75C60.39,12.87,45.79,10,32,14.88,23.74,17.81,14.84,22.4,8.43,28.4.8,35.52-.39,41.71.1,44.31c1.78,9.2,14.47,15.19,19.55,19.62l-.7.39C16.4,65.59,6.71,70.65,4.31,76c-2.73,6.05.43,10.41,2.54,11,6.52,1.82,13.22-1.44,16.81-6.81s3.16-12.34,1.5-15.54a.41.41,0,0,0-.08-.12l2-1.17c1.29-.76,2.58-1.48,3.67-2.07a23.83,23.83,0,0,0-1.29,6.64c-.27,3.44,1.13,7.89,3,9.65a3.3,3.3,0,0,0,2.4.78c2.15,0,3.12-1.8,4.2-3.91,1.31-2.6,2.5-5.6,2.5-5.6S40,77,44.07,77c1.46,0,2.95-1.89,3.59-2.87v0l.12-.18.23-.39v0c.59-1,1.89-3.34,3.85-7.19,2.52-5,4.94-11.17,4.94-11.17a30.08,30.08,0,0,0,1,4,34.43,34.43,0,0,0,2.09,4.67c-.59.82-1,1.27-1,1.27l0,0c-.47.62-1,1.29-1.54,2-2,2.38-4.37,5.1-4.69,5.88a1.59,1.59,0,0,0,.43,2.15,4,4,0,0,0,2.44.41,11.48,11.48,0,0,0,3.67-.84,12.39,12.39,0,0,0,3.16-1.66,7.07,7.07,0,0,0,3-6.23,12.52,12.52,0,0,0-1.15-4.39l.53-.76a85,85,0,0,0,5.49-9.45,30.08,30.08,0,0,0,1,4,27.29,27.29,0,0,0,1.78,4,17.36,17.36,0,0,0-5.33,6.89c-1.15,3.32-.25,4.82,1.44,5.17a5.2,5.2,0,0,0,2.68-.55,12.38,12.38,0,0,0,3.38-1.74c2-1.44,3.83-3.46,3.73-6.17a12,12,0,0,0-.84-3.65,19.29,19.29,0,0,1,9.7-1.11c8.69,1,10.41,6.44,10.08,8.73a5.78,5.78,0,0,1-2.75,3.91c-.61.39-.8.51-.74.78s.37.39.88.31A6.79,6.79,0,0,0,100,66.8C100.23,61.41,95.13,55.56,86.09,55.6ZM19,78.21c-2.89,3.14-6.91,4.33-8.63,3.32s-1.13-5.72,2.4-9a44.94,44.94,0,0,1,6.78-5.06l1.8-1.07.2-.12c.14-.1.29-.18.43-.27A12.46,12.46,0,0,1,19,78.21ZM40,63.93c-1,2.44-3.1,8.71-4.37,8.36-1.09-.29-1.78-5-.21-9.72a21.71,21.71,0,0,1,3.42-6.27c1.56-1.76,3.3-2.34,3.73-1.62C43.09,55.6,40.65,62.39,40,63.93Zm17.34,8.28c-.43.21-.82.37-1,.25s.18-.37.18-.37,2.17-2.34,3-3.4c.49-.62,1.07-1.35,1.7-2.17v.23C61.27,69.58,58.56,71.45,57.37,72.21Zm13.36-3c-.31-.21-.25-1,.78-3.24a12.07,12.07,0,0,1,3-3.83,5.34,5.34,0,0,1,.29,1.68A5.48,5.48,0,0,1,70.72,69.17Z"/></svg>