<svg id="Layer_1" data-name="Layer 1" xmlns="http://www.w3.org/2000/svg" viewBox="0 0 100 100"><defs><style>.cls-1{fill:#2479bf;}.cls-2{fill:#fff;}</style></defs><title>1</title><polygon class="cls-1" points="0 50 0 100 50 100 100 100 100 50 100 0 50 0 0 0 0 50"/><path class="cls-2" d="M22.11,50.33l0,4.1h13v37H44.3v-37h13v-4a39.34,39.34,0,0,0-.11-4.13c0-.06-8-.1-17.57-.08l-17.48,0Z"/><path class="cls-2" d="M80.69,46.14a12.45,12.45,0,0,1,6.25,3.6,16.47,16.47,0,0,1,2.4,3.21c0,.13-4.32,3-7,4.68-.1.06-.48-.35-.9-1a5.67,5.67,0,0,0-4.7-2.83c-3-.21-5,1.38-5,4a3.67,3.67,0,0,0,.43,1.87c.67,1.38,1.9,2.21,5.79,3.89,7.16,3.08,10.22,5.11,12.13,8A14.51,14.51,0,0,1,91.33,83.8c-1.59,4.16-5.52,7-11.06,7.92a30.66,30.66,0,0,1-7.62-.08,18.38,18.38,0,0,1-10.17-5.3,17.67,17.67,0,0,1-2.6-3.86,7.47,7.47,0,0,1,.92-.59l3.71-2.14,2.87-1.67L68,79a13.42,13.42,0,0,0,3.79,3.63c3.19,1.68,7.57,1.44,9.73-.49a4.35,4.35,0,0,0,.56-5.54c-.78-1.11-2.37-2-6.87-4C70,70.36,67.8,69,65.77,66.79a13.19,13.19,0,0,1-2.75-5,20,20,0,0,1-.17-6.38c1.06-5,4.83-8.46,10.25-9.49A25.33,25.33,0,0,1,80.69,46.14Z"/></svg>