<svg id="Layer_1" data-name="Layer 1" xmlns="http://www.w3.org/2000/svg" viewBox="0 0 100 100"><defs><style>.cls-1{fill:#fff;}.cls-2{fill:#2997d4;}.cls-3{fill:#222;}</style></defs><title>1</title><path class="cls-1" d="M52.74,38.12V61.88H46.83V38.12Zm14.66-.76A12.65,12.65,0,1,1,54.48,50,12.81,12.81,0,0,1,67.4,37.36Zm0,19.51A6.87,6.87,0,1,0,60.86,50,6.7,6.7,0,0,0,67.36,56.86Zm13.47-2.2,5.4-1.27c.38,2.85,2.46,3.87,4.63,3.87S93.79,56,93.79,55c0-.81-.47-1.61-2-1.91l-3.31-.64c-4-.76-6.76-3.23-6.76-7.05,0-4.55,4.12-7.73,8.84-7.73,6,0,8.5,3.74,8.93,6.93l-5.23,1.53a3.54,3.54,0,0,0-3.65-3.36c-1.87,0-2.76,1.23-2.76,2.2a1.9,1.9,0,0,0,1.79,2l3.44.64c4.5.89,7,3.61,7,7.18,0,3.87-3.36,7.61-9.1,7.61-6.08,0-9.26-3.1-10.07-7.65Z"/><path class="cls-2" d="M6.33,61.84H0L10.45,38.12h6.37Z"/><path class="cls-1" d="M21,61.84h7.95l5-7.52,4.93,7.52h6.5L37.48,49.72,45.4,38.08H38.17l-4.25,7.05L29.8,38.08H22.5l7.95,11.64-5.14,7.52L16.85,38.12H10.48Z"/><path class="cls-3" d="M52.74,38.12V61.88H46.83V38.12Zm14.66-.76A12.65,12.65,0,1,1,54.48,50,12.81,12.81,0,0,1,67.4,37.36Zm0,19.51A6.87,6.87,0,1,0,60.86,50,6.7,6.7,0,0,0,67.36,56.86Zm13.47-2.2,5.4-1.27c.38,2.85,2.46,3.87,4.63,3.87S93.79,56,93.79,55c0-.81-.47-1.61-2-1.91l-3.31-.64c-4-.76-6.76-3.23-6.76-7.05,0-4.55,4.12-7.73,8.84-7.73,6,0,8.5,3.74,8.93,6.93l-5.23,1.53a3.54,3.54,0,0,0-3.65-3.36c-1.87,0-2.76,1.23-2.76,2.2a1.9,1.9,0,0,0,1.79,2l3.44.64c4.5.89,7,3.61,7,7.18,0,3.87-3.36,7.61-9.1,7.61-6.08,0-9.26-3.1-10.07-7.65ZM10.45,38.12h6.37l8.46,19.12,5.14-7.52L22.48,38.08h7.3l4.12,7.05,4.25-7.05h7.22l-7.9,11.64,7.86,12.11h-6.5L33.9,54.32l-5,7.52H21l-7.24-16.6Z"/><path class="cls-3" d="M10.45,38.12,21,61.84,18.55,47.6l-8.09-9.48"/></svg>