<svg id="Layer_1" data-name="Layer 1" xmlns="http://www.w3.org/2000/svg" viewBox="0 0 100 100"><defs><style>.cls-1{fill:#2173b5;}.cls-2{fill:#53a3da;}.cls-3{fill:#ebebeb;}.cls-4{fill:#cfcfce;}.cls-5{fill:#010101;}</style></defs><title>1</title><g id="_Group_" data-name="&lt;Group&gt;"><polygon id="_Path_" data-name="&lt;Path&gt;" class="cls-1" points="21.02 91.97 14.58 19.65 85.42 19.65 78.97 91.96 49.96 100 21.02 91.97"/><polygon id="_Path_2" data-name="&lt;Path&gt;" class="cls-2" points="50 93.85 73.44 87.35 78.96 25.57 50 25.57 50 93.85"/><polygon id="_Path_3" data-name="&lt;Path&gt;" class="cls-3" points="26.98 42.26 26.11 33.89 73.89 33.89 73.33 43.58 53.13 52.5 72.5 52.5 70.42 80 50.89 85.24 30.63 80.33 29.38 66.39 38.33 66.39 38.82 73.75 50.56 75.94 61.39 72.62 61.88 60.83 28.61 60.83 27.99 52.08 50 42.43 26.98 42.26"/><g id="_Group_2" data-name="&lt;Group&gt;"><polygon id="_Path_4" data-name="&lt;Path&gt;" class="cls-4" points="27.99 52.08 28.61 60.83 50 60.83 50 42.43 27.99 52.08"/><polygon id="_Path_5" data-name="&lt;Path&gt;" class="cls-4" points="38.82 73.75 38.33 66.39 29.38 66.39 30.63 80.33 50 85.03 50 75.83 38.82 73.75"/><polygon id="_Path_6" data-name="&lt;Path&gt;" class="cls-4" points="26.11 33.89 26.98 42.26 50 42.43 50 33.89 26.11 33.89"/></g><g id="_Group_3" data-name="&lt;Group&gt;"><polygon id="_Path_7" data-name="&lt;Path&gt;" class="cls-5" points="56.67 3.33 56.67 0 43.33 0 43.33 7.78 52.5 7.78 52.5 10.28 43.06 10.28 43.06 13.33 56.39 13.33 56.39 5.28 46.94 5.28 46.94 3.33 56.67 3.33"/><polygon id="_Path_8" data-name="&lt;Path&gt;" class="cls-5" points="32.5 7.85 32.5 10.28 41.94 10.28 41.94 13.33 28.61 13.33 28.61 5.35 28.61 0 41.67 0 41.67 3.33 32.5 3.33 32.5 7.85"/><polygon id="_Path_9" data-name="&lt;Path&gt;" class="cls-5" points="71.39 3.33 71.39 0 58.06 0 58.06 7.78 67.22 7.78 67.22 10.28 57.78 10.28 57.78 13.33 71.11 13.33 71.11 5.28 61.67 5.28 61.67 3.33 71.39 3.33"/></g></g></svg>