<svg id="Layer_1" data-name="Layer 1" xmlns="http://www.w3.org/2000/svg" viewBox="0 0 100 100"><defs><style>.cls-1{fill:#de4c36;}</style></defs><title>Untitled-1</title><path class="cls-1" d="M98.11,45.55,54.45,1.89a6.43,6.43,0,0,0-9.1,0L36.29,11,47.79,22.46a7.65,7.65,0,0,1,9.69,9.75L68.58,43.3A7.66,7.66,0,1,1,64,47.62L53.65,37.28V64.49a8,8,0,0,1,2,1.45,7.67,7.67,0,1,1-10.84,0,8,8,0,0,1,2.5-1.68V36.8a7.52,7.52,0,0,1-2.5-1.68,7.69,7.69,0,0,1-1.66-8.38L31.85,15.39l-30,30a6.43,6.43,0,0,0,0,9.1L45.55,98.11a6.43,6.43,0,0,0,9.1,0L98.11,54.65a6.43,6.43,0,0,0,0-9.1"/></svg>