<svg id="Layer_1" data-name="Layer 1" xmlns="http://www.w3.org/2000/svg" viewBox="0 0 100 100"><defs><style>.cls-1{fill:#e44f26;}.cls-2{fill:#f1672a;}.cls-3{fill:#ebebeb;}.cls-4{fill:#010101;}.cls-5{fill:#fff;}</style></defs><title>1</title><g id="_Group_" data-name="&lt;Group&gt;"><polygon id="_Path_" data-name="&lt;Path&gt;" class="cls-1" points="21.02 91.97 14.58 19.65 85.42 19.65 78.97 91.96 49.96 100 21.02 91.97"/><polygon id="_Path_2" data-name="&lt;Path&gt;" class="cls-2" points="50 93.85 73.44 87.35 78.96 25.57 50 25.57 50 93.85"/><polygon id="_Path_3" data-name="&lt;Path&gt;" class="cls-3" points="50 52.39 38.26 52.39 37.45 43.3 50 43.3 50 34.44 49.97 34.44 27.76 34.44 27.97 36.81 30.15 61.26 50 61.26 50 52.39"/><polygon id="_Path_4" data-name="&lt;Path&gt;" class="cls-3" points="50 75.42 49.96 75.43 40.08 72.76 39.45 65.69 34.65 65.69 30.55 65.69 31.79 79.62 49.96 84.66 50 84.65 50 75.42"/><path id="_Path_5" data-name="&lt;Path&gt;" class="cls-4" d="M21.17,0h4.51V4.45H29.8V0h4.51V13.49H29.8V9H25.68v4.52H21.17V0Z"/><path id="_Path_6" data-name="&lt;Path&gt;" class="cls-4" d="M40.23,4.47h-4V0H48.71V4.47h-4v9H40.23v-9Z"/><path id="_Path_7" data-name="&lt;Path&gt;" class="cls-4" d="M50.69,0h4.7l2.89,4.74L61.16,0h4.7V13.49H61.38V6.8l-3.1,4.79H58.2L55.1,6.8v6.68H50.69Z"/><path id="_Path_8" data-name="&lt;Path&gt;" class="cls-4" d="M68.11,0h4.51V9H79v4.46H68.11Z"/><polygon id="_Path_9" data-name="&lt;Path&gt;" class="cls-5" points="49.97 52.39 49.97 61.26 60.89 61.26 59.86 72.76 49.97 75.43 49.97 84.66 68.15 79.62 68.28 78.12 70.37 54.77 70.59 52.39 68.2 52.39 49.97 52.39"/><polygon id="_Path_10" data-name="&lt;Path&gt;" class="cls-5" points="49.97 34.44 49.97 39.94 49.97 43.28 49.97 43.3 71.36 43.3 71.36 43.3 71.39 43.3 71.57 41.31 71.97 36.81 72.19 34.44 49.97 34.44"/></g></svg>