<svg id="Layer_1" data-name="Layer 1" xmlns="http://www.w3.org/2000/svg" viewBox="0 0 100 100"><defs><style>.cls-1{fill:#55b3b4;}.cls-2{fill:#ea5f5e;}.cls-3{fill:#bf86bb;}.cls-4{fill:#f6ba3d;}.cls-5{fill:#4e626f;opacity:0.5;isolation:isolate;}</style></defs><title>Untitled-1</title><g id="Page-1"><g id="prettier-icon-dark"><g id="Icon-_Dark_" data-name="Icon-(Dark)"><g id="Group"><path id="Rectangle" class="cls-1" d="M73.81,19h4.76a2.38,2.38,0,1,1,0,4.76H73.81a2.38,2.38,0,1,1,0-4.76Z"/><path id="Rectangle-2" data-name="Rectangle" class="cls-2" d="M2.38,95.24H26.19a2.38,2.38,0,1,1,0,4.76H2.38a2.38,2.38,0,1,1,0-4.76Z"/><path id="Rectangle-3" data-name="Rectangle" class="cls-3" d="M59.52,57.14H73.81a2.38,2.38,0,0,1,0,4.76H59.52a2.38,2.38,0,0,1,0-4.76Z"/><path id="Rectangle-4" data-name="Rectangle" class="cls-2" d="M31,57.14H50a2.38,2.38,0,0,1,0,4.76H31a2.38,2.38,0,0,1,0-4.76Z"/><path id="Rectangle-5" data-name="Rectangle" class="cls-1" d="M2.38,57.14h19a2.38,2.38,0,1,1,0,4.76h-19a2.38,2.38,0,1,1,0-4.76Z"/><path id="Rectangle-6" data-name="Rectangle" class="cls-3" d="M2.38,76.19H26.19a2.38,2.38,0,1,1,0,4.76H2.38a2.38,2.38,0,1,1,0-4.76Z"/><path id="Rectangle-7" data-name="Rectangle" class="cls-3" d="M2.38,38.1H26.19a2.38,2.38,0,1,1,0,4.76H2.38a2.38,2.38,0,1,1,0-4.76Z"/><path id="Rectangle-8" data-name="Rectangle" class="cls-4" d="M26.19,9.52H73.81a2.38,2.38,0,0,1,0,4.76H26.19a2.38,2.38,0,0,1,0-4.76Z"/><path id="Rectangle-9" data-name="Rectangle" class="cls-2" d="M2.38,9.52H16.67a2.38,2.38,0,0,1,0,4.76H2.38a2.38,2.38,0,0,1,0-4.76Z"/><path id="Rectangle-10" data-name="Rectangle" class="cls-4" d="M21.43,85.71h4.76a2.38,2.38,0,0,1,0,4.76H21.43a2.38,2.38,0,0,1,0-4.76Z"/><path id="Rectangle-11" data-name="Rectangle" class="cls-1" d="M21.43,28.57h4.76a2.38,2.38,0,1,1,0,4.76H21.43a2.38,2.38,0,1,1,0-4.76Z"/><path id="Rectangle-12" data-name="Rectangle" class="cls-1" d="M2.38,85.71H11.9a2.38,2.38,0,1,1,0,4.76H2.38a2.38,2.38,0,0,1,0-4.76Z"/><path id="Rectangle-13" data-name="Rectangle" class="cls-4" d="M2.38,28.57H11.9a2.38,2.38,0,1,1,0,4.76H2.38a2.38,2.38,0,1,1,0-4.76Z"/><path id="Rectangle-14" data-name="Rectangle" class="cls-5" d="M64.29,85.71H69a2.38,2.38,0,0,1,0,4.76H64.29a2.38,2.38,0,1,1,0-4.76Z"/><path id="Rectangle-15" data-name="Rectangle" class="cls-5" d="M35.71,85.71h19a2.38,2.38,0,0,1,0,4.76h-19a2.38,2.38,0,0,1,0-4.76Z"/><path id="Rectangle-16" data-name="Rectangle" class="cls-5" d="M78.57,85.71h19a2.38,2.38,0,0,1,0,4.76h-19a2.38,2.38,0,0,1,0-4.76Z"/><path id="Rectangle-17" data-name="Rectangle" class="cls-1" d="M40.48,47.62h38.1a2.38,2.38,0,1,1,0,4.76H40.48a2.38,2.38,0,0,1,0-4.76Z"/><path id="Rectangle-18" data-name="Rectangle" class="cls-4" d="M16.67,47.62H31a2.38,2.38,0,1,1,0,4.76H16.67a2.38,2.38,0,0,1,0-4.76Z"/><path id="Rectangle-19" data-name="Rectangle" class="cls-2" d="M2.38,47.62H7.14a2.38,2.38,0,1,1,0,4.76H2.38a2.38,2.38,0,1,1,0-4.76Z"/><path id="Rectangle-20" data-name="Rectangle" class="cls-3" d="M45.24,19h19a2.38,2.38,0,0,1,0,4.76h-19a2.38,2.38,0,1,1,0-4.76Z"/><path id="Rectangle-21" data-name="Rectangle" class="cls-1" d="M2.38,19H35.71a2.38,2.38,0,1,1,0,4.76H2.38a2.38,2.38,0,1,1,0-4.76Z"/><path id="Rectangle-22" data-name="Rectangle" class="cls-4" d="M16.67,66.67H59.52a2.38,2.38,0,0,1,0,4.76H16.67a2.38,2.38,0,1,1,0-4.76Z"/><path id="Rectangle-23" data-name="Rectangle" class="cls-3" d="M2.38,66.67H7.14a2.38,2.38,0,1,1,0,4.76H2.38a2.38,2.38,0,1,1,0-4.76Z"/><path id="Rectangle-24" data-name="Rectangle" class="cls-2" d="M59.52,28.57H83.33a2.38,2.38,0,0,1,0,4.76H59.52a2.38,2.38,0,0,1,0-4.76Z"/><path id="Rectangle-25" data-name="Rectangle" class="cls-4" d="M59.52,38.1H83.33a2.38,2.38,0,0,1,0,4.76H59.52a2.38,2.38,0,1,1,0-4.76Z"/><path id="Rectangle-26" data-name="Rectangle" class="cls-1" d="M2.38,0H59.52A2.36,2.36,0,0,1,61.9,2.38a2.36,2.36,0,0,1-2.38,2.38H2.38A2.36,2.36,0,0,1,0,2.38,2.36,2.36,0,0,1,2.38,0Z"/><path id="Rectangle-27" data-name="Rectangle" class="cls-5" d="M69,0H97.62A2.36,2.36,0,0,1,100,2.38a2.36,2.36,0,0,1-2.38,2.38H69a2.36,2.36,0,0,1-2.38-2.38A2.36,2.36,0,0,1,69,0Z"/><path id="Rectangle-28" data-name="Rectangle" class="cls-5" d="M69,66.67h9.52a2.38,2.38,0,1,1,0,4.76H69a2.38,2.38,0,1,1,0-4.76Z"/><path id="Rectangle-29" data-name="Rectangle" class="cls-5" d="M88.1,66.67h9.52a2.38,2.38,0,1,1,0,4.76H88.1a2.38,2.38,0,1,1,0-4.76Z"/><path id="Rectangle-30" data-name="Rectangle" class="cls-5" d="M83.33,57.14H97.62a2.38,2.38,0,0,1,0,4.76H83.33a2.38,2.38,0,0,1,0-4.76Z"/><path id="Rectangle-31" data-name="Rectangle" class="cls-5" d="M83.33,9.52H97.62a2.38,2.38,0,0,1,0,4.76H83.33a2.38,2.38,0,0,1,0-4.76Z"/><path id="Rectangle-32" data-name="Rectangle" class="cls-5" d="M88.1,47.62h9.52a2.38,2.38,0,0,1,0,4.76H88.1a2.38,2.38,0,1,1,0-4.76Z"/><path id="Rectangle-33" data-name="Rectangle" class="cls-5" d="M88.1,19h9.52a2.38,2.38,0,0,1,0,4.76H88.1a2.38,2.38,0,1,1,0-4.76Z"/><path id="Rectangle-34" data-name="Rectangle" class="cls-5" d="M92.86,28.57h4.76a2.38,2.38,0,0,1,0,4.76H92.86a2.38,2.38,0,1,1,0-4.76Z"/><path id="Rectangle-35" data-name="Rectangle" class="cls-5" d="M92.86,38.1h4.76a2.38,2.38,0,0,1,0,4.76H92.86a2.38,2.38,0,1,1,0-4.76Z"/><path id="Rectangle-36" data-name="Rectangle" class="cls-5" d="M54.76,76.19H97.62a2.38,2.38,0,1,1,0,4.76H54.76a2.38,2.38,0,1,1,0-4.76Z"/><path id="Rectangle-37" data-name="Rectangle" class="cls-5" d="M35.71,76.19h9.52a2.38,2.38,0,1,1,0,4.76H35.71a2.38,2.38,0,1,1,0-4.76Z"/><path id="Rectangle-38" data-name="Rectangle" class="cls-5" d="M73.81,95.24H97.62a2.38,2.38,0,0,1,0,4.76H73.81a2.38,2.38,0,0,1,0-4.76Z"/><path id="Rectangle-39" data-name="Rectangle" class="cls-5" d="M35.71,95.24H64.29a2.38,2.38,0,0,1,0,4.76H35.71a2.38,2.38,0,0,1,0-4.76Z"/><path id="Rectangle-40" data-name="Rectangle" class="cls-5" d="M35.71,28.57H50a2.38,2.38,0,0,1,0,4.76H35.71a2.38,2.38,0,1,1,0-4.76Z"/><path id="Rectangle-41" data-name="Rectangle" class="cls-5" d="M35.71,38.1H50a2.38,2.38,0,1,1,0,4.76H35.71a2.38,2.38,0,1,1,0-4.76Z"/></g></g></g></g></svg>