<svg id="Layer_1" data-name="Layer 1" xmlns="http://www.w3.org/2000/svg" viewBox="0 0 100 100"><defs><style>.cls-1{fill:#70cff0;}</style></defs><title>react</title><path class="cls-1" d="M100,50c0-6.62-8.3-12.9-21-16.8,2.94-13,1.63-23.28-4.12-26.58A8.94,8.94,0,0,0,70.3,5.49V10a4.72,4.72,0,0,1,2.32.53c2.77,1.59,4,7.64,3,15.43-.22,1.92-.59,3.93-1,6a98.78,98.78,0,0,0-12.94-2.22A99.43,99.43,0,0,0,53.2,19.58C59.85,13.4,66.08,10,70.32,10V5.47c-5.61,0-12.94,4-20.36,10.93C42.54,9.51,35.2,5.55,29.6,5.55V10.1c4.22,0,10.48,3.36,17.12,9.5A96.27,96.27,0,0,0,38.3,29.77a95.18,95.18,0,0,0-13,2.24c-.47-2-.82-4-1.06-5.91-1-7.79.22-13.84,3-15.45a4.54,4.54,0,0,1,2.34-.53V5.57A9.09,9.09,0,0,0,25,6.72c-5.73,3.3-7,13.6-4.06,26.52C8.26,37.15,0,43.41,0,50s8.3,12.9,21,16.8c-2.94,13-1.63,23.28,4.12,26.58a9,9,0,0,0,4.59,1.14c5.61,0,12.94-4,20.36-10.93,7.42,6.89,14.76,10.84,20.36,10.84a9.09,9.09,0,0,0,4.61-1.14c5.73-3.3,7-13.6,4.06-26.52C91.74,62.89,100,56.61,100,50ZM73.46,36.41c-.75,2.63-1.69,5.34-2.75,8.05C69.87,42.84,69,41.2,68,39.57S66.1,36.35,65.1,34.8c2.89.43,5.69,1,8.36,1.61ZM64.13,58.12c-1.59,2.75-3.22,5.36-4.91,7.79-3,.26-6.11.41-9.21.41s-6.16-.14-9.17-.39q-2.54-3.64-4.93-7.75t-4.24-8.11c1.26-2.73,2.69-5.46,4.22-8.13s3.22-5.36,4.91-7.79c3-.26,6.11-.41,9.21-.41s6.16.14,9.17.39q2.54,3.64,4.93,7.75T68.34,50c-1.28,2.73-2.69,5.46-4.22,8.13Zm6.58-2.65c1.1,2.73,2,5.46,2.81,8.11-2.67.65-5.48,1.2-8.4,1.63,1-1.57,2-3.18,2.94-4.83s1.81-3.28,2.65-4.91ZM50,77.22a84,84,0,0,1-5.67-6.52c1.83.08,3.71.14,5.61.14s3.81,0,5.67-.14A79.56,79.56,0,0,1,50,77.22Zm-15.17-12c-2.89-.43-5.69-1-8.36-1.61.75-2.63,1.69-5.34,2.75-8.05.84,1.63,1.71,3.26,2.67,4.89S33.88,63.67,34.88,65.22ZM49.94,22.8a84,84,0,0,1,5.67,6.52c-1.83-.08-3.71-.14-5.61-.14s-3.81,0-5.67.14A79.56,79.56,0,0,1,49.94,22.8Zm-15.08,12c-1,1.57-2,3.18-2.94,4.83s-1.81,3.26-2.65,4.89c-1.1-2.73-2-5.46-2.81-8.11,2.67-.63,5.48-1.18,8.4-1.61ZM16.41,60.32C9.19,57.25,4.53,53.21,4.53,50S9.19,42.75,16.41,39.7c1.75-.75,3.67-1.43,5.65-2.06a97.9,97.9,0,0,0,4.59,12.41A96.52,96.52,0,0,0,22.12,62.4c-2-.63-3.93-1.32-5.71-2.08Zm11,29.13c-2.77-1.59-4-7.64-3-15.43.22-1.92.59-3.93,1-6a98.78,98.78,0,0,0,12.94,2.22A99.43,99.43,0,0,0,46.8,80.44C40.15,86.62,33.92,90,29.68,90a4.86,4.86,0,0,1-2.3-.55ZM75.72,73.92c1,7.79-.22,13.84-3,15.45a4.54,4.54,0,0,1-2.34.53c-4.22,0-10.48-3.36-17.12-9.5A96.27,96.27,0,0,0,61.7,70.23a95.18,95.18,0,0,0,13-2.24A57.06,57.06,0,0,1,75.72,73.92Zm7.85-13.6c-1.75.75-3.67,1.43-5.65,2.06A97.9,97.9,0,0,0,73.34,50a96.52,96.52,0,0,0,4.53-12.35c2,.63,3.93,1.32,5.73,2.08C90.81,42.77,95.47,46.81,95.47,50s-4.69,7.26-11.9,10.31Z"/><circle class="cls-1" cx="49.98" cy="50.01" r="9.32"/></svg>