<svg id="Layer_1" data-name="Layer 1" xmlns="http://www.w3.org/2000/svg" viewBox="0 0 100 100"><defs><style>.cls-1{fill:#010101;}.cls-2{fill:#cf2027;}</style></defs><title>1</title><path class="cls-1" d="M30.49,58.93a9.06,9.06,0,1,0-9.06-9.06A9.07,9.07,0,0,0,30.49,58.93ZM9.06,77.07A9.06,9.06,0,1,0,0,68,9.07,9.07,0,0,0,9.06,77.07Zm81.88,0A9.06,9.06,0,1,0,81.88,68,9.07,9.07,0,0,0,90.94,77.07Z"/><path class="cls-2" d="M61.15,50.25c-.29-3-.43-5.55-2.75-7.32-2.93-2.25-6.27-.78-10.37-2.27a9.06,9.06,0,0,1,2.23-17.89,9.26,9.26,0,0,1,8.46,5.43c2.19,4.16.76,8.38,3.52,10.51,3.26,2.52,7.64.68,12.54,3.07a9.26,9.26,0,0,1,3.85,3.28A9,9,0,0,1,80.1,50a9.11,9.11,0,0,1-7,8.81c-4.1,1.48-7.42,0-10.37,2.27-3.3,2.52-1.54,6.74-4.24,11.21A9.27,9.27,0,0,1,41,68.14a9.08,9.08,0,0,1,5.33-8.22c4.9-2.38,9.28-.55,12.54-3.07C60.76,55.41,61.15,53.16,61.15,50.25Z"/></svg>