<svg id="Layer_1" data-name="Layer 1" xmlns="http://www.w3.org/2000/svg" viewBox="0 0 100 100"><defs><style>.cls-1{fill:#2789ca;}.cls-2{fill:#1171b3;}.cls-3{fill:#0978b9;}.cls-4{fill:#3c99d4;}</style></defs><title>Untitled-1</title><path class="cls-1" d="M1,35s-2.44-1.76.49-4.1l6.81-6.09a2.89,2.89,0,0,1,4-.26L75.1,72.16V95s0,3.58-4.63,3.19Z"/><path class="cls-2" d="M17.15,49.74,1,64.46S-.71,65.7,1,67.91l7.52,6.84s1.79,1.92,4.42-.26l17.17-13Z"/><path class="cls-3" d="M45.58,49.86l29.7-22.68L75.1,4.49s-1.27-5-5.5-2.37l-39.53,36Z"/><path class="cls-4" d="M70.47,98.19a4.08,4.08,0,0,0,3.82,1.19L97.43,88c3-2,2.55-4.53,2.55-4.53V15.33c0-3-3.06-4-3.06-4L76.85,1.62c-4.38-2.71-7.26.49-7.26.49s3.69-2.66,5.5,2.37V94.55a4.09,4.09,0,0,1-.4,1.78C74.17,97.4,73,98.39,70.28,98Z"/></svg>